<svg width="24" height="24" viewBox="0 0 24 24" fill="none" xmlns="http://www.w3.org/2000/svg">
    <mask id="mask0_5_1344" style="mask-type:alpha" maskUnits="userSpaceOnUse" x="0" y="0" width="24" height="24">
        <rect width="24" height="24" fill="#D9D9D9" />
    </mask>
    <g mask="url(#mask0_5_1344)">
        <path
            d="M11.9476 6.59694L9.35064 4L2.85829 5.46078L5.45523 8.54465M11.9476 6.59694L14.8691 4L21.5238 5.94771L18.6022 8.54465M11.9476 6.59694L5.45523 8.54465M11.9476 6.59694L18.6022 8.54465M18.6022 8.54465L22 11.1429L15.5 14L11.8342 11.1429M18.6022 8.54465L11.8342 11.1429M11.8342 11.1429L8.5 14L2 10.6667L5.45523 8.54465M11.8342 11.1429L5.45523 8.54465M5.77985 12.7666V18.2832L12.1099 20.7178L18.6022 18.1209V12.7666"
            stroke="white" stroke-width="2" />
    </g>
</svg>